<svg width="58" height="58" viewBox="0 0 58 58" fill="none" xmlns="http://www.w3.org/2000/svg">
<path d="M28.0726 51.903C28.0726 51.8494 28.1711 49.5732 28.2886 46.842C28.5538 40.7331 28.55 41.0573 28.3416 40.7683C28.1522 40.5038 27.9335 40.3762 27.6702 40.3762C27.3556 40.3762 25.1378 40.6752 22.2185 41.106C19.2587 41.5449 17.6631 41.763 17.638 41.7324C17.638 41.7324 17.8237 41.0501 18.07 40.2397C18.5861 38.5409 18.6123 38.3362 18.377 37.8624C18.2367 37.5864 17.909 37.3035 13.1087 33.3622C10.2929 31.05 7.99395 29.1345 8.00001 29.1058C8.00001 29.0675 8.53013 28.8068 9.16484 28.5082C9.79916 28.2092 10.3804 27.9033 10.4566 27.8309C10.6347 27.6622 10.684 27.3889 10.6044 27.0021C10.5665 26.8335 10.1531 25.2634 9.6779 23.5147C9.20273 21.766 8.82077 20.3293 8.82911 20.3224C8.82911 20.3224 10.1546 20.5869 11.7567 20.9303C13.3588 21.2715 14.7669 21.5509 14.8859 21.5509C15.1549 21.5509 15.4437 21.4014 15.5907 21.1829C15.6513 21.0909 15.8673 20.4313 16.0689 19.7152C16.2697 18.9992 16.4516 18.3824 16.4717 18.3445C16.5096 18.2985 17.3459 19.2238 18.851 20.9288C20.1393 22.3885 21.286 23.6626 21.3993 23.7608C21.638 23.9678 22.0044 24.0866 22.2348 24.0368C22.5759 23.9601 22.7877 23.5821 22.7873 23.052C22.7873 22.9025 22.3273 20.3117 21.7657 17.2965C21.2038 14.2809 20.7521 11.8058 20.7623 11.7954C20.7623 11.7954 21.505 12.1481 22.3906 12.6046C23.9381 13.3996 24.0139 13.4322 24.331 13.4341C24.7297 13.4364 25.0412 13.2808 25.231 12.9883C25.2992 12.881 26.1658 11.2649 27.1548 9.3966C28.1434 7.52868 28.9691 6 28.9896 6C29.0275 6 29.8361 7.52868 30.8255 9.3966C31.8145 11.2649 32.68 12.8798 32.7482 12.9856C32.8884 13.2003 33.1233 13.3613 33.3897 13.4215C33.761 13.5058 34.0994 13.3793 35.6701 12.5667C36.5109 12.1312 37.2074 11.7839 37.2176 11.7947C37.2176 11.7947 36.7773 14.2809 36.2154 17.2965C35.6462 20.3508 35.1938 22.9163 35.1938 23.0888C35.1934 23.8282 35.6178 24.2039 36.1994 23.9789C36.3359 23.9252 36.5253 23.8141 36.6212 23.7297C36.7159 23.6454 37.8485 22.382 39.1346 20.9254C40.6367 19.2234 41.4855 18.3015 41.509 18.346C41.5469 18.3843 41.7098 19.0007 41.9122 19.7167C42.113 20.4328 42.3286 21.0932 42.3904 21.1845C42.5382 21.403 42.8254 21.5525 43.0948 21.5525C43.2161 21.5525 44.6223 21.2726 46.2244 20.9319C47.8265 20.5907 49.1436 20.317 49.152 20.3239C49.152 20.3239 48.7632 21.8196 48.2698 23.632C47.7764 25.4443 47.36 27.0769 47.3445 27.2597C47.3028 27.763 47.3862 27.8343 48.817 28.5109C49.4676 28.8175 50 29.0885 50 29.1112C50 29.1495 47.6942 31.0458 44.8758 33.3599C40.0713 37.305 39.742 37.586 39.603 37.8639C39.3643 38.3377 39.3908 38.5424 39.9099 40.2413C40.1562 41.0516 40.3506 41.7232 40.3419 41.7339C40.304 41.7722 38.7208 41.5461 35.7614 41.1076C32.7705 40.6641 30.622 40.3777 30.287 40.3777C30.0256 40.3777 29.7202 40.6269 29.5834 40.9504C29.4962 41.1574 29.5 41.4338 29.6213 45.9432C29.6895 48.5693 29.7463 51.006 29.7501 51.3587L29.7531 52H28.9172C28.1567 52 28.0809 52 28.0813 51.9042L28.0726 51.903Z" fill="#00502A"/>
<path d="M27.5 40H30.5L32 52H26L27.5 40Z" fill="#00502A"/>
<circle cx="29" cy="29" r="27.75" stroke="#00502A" stroke-width="2.5"/>
</svg>
