<svg width="527" height="259" viewBox="0 0 527 259" fill="none" xmlns="http://www.w3.org/2000/svg">
<path d="M56.2887 80.6182H169.268C227.74 80.6182 239.648 203.524 153.353 203.536C153.353 203.536 3.01769 203.904 3.01769 203.878C3.05369 203.904 3.01769 154.747 3.01769 154.695C109.332 154.695 166.788 154.581 161.519 154.581C169.48 147.139 168.025 138.008 161.359 130.617C153.873 130.398 57.9477 130.617 57.9477 130.617C-22.9693 130.638 -16.1373 2.6512 60.6577 2.5822C58.7887 2.5822 215.046 2.81619 215.046 2.81619V55.0792C215.046 55.0792 54.3137 55.4002 56.4917 54.9662C49.7317 62.6832 49.0587 73.3982 56.2887 80.6182Z" fill="#00502A"/>
<path fill-rule="evenodd" clip-rule="evenodd" d="M254.362 203.879V49.0986L319.701 203.879H254.362Z" fill="#00502A"/>
<path fill-rule="evenodd" clip-rule="evenodd" d="M428.053 203.879V49.0986L362.714 203.879H428.053Z" fill="#00502A"/>
<path fill-rule="evenodd" clip-rule="evenodd" d="M340.506 128.251L395.852 0.863098H288.497L340.506 128.251Z" fill="#00502A"/>
<path d="M472.42 1.70398H526.107V203.879H472.42V1.70398Z" fill="#00502A"/>
<path d="M526.107 258.822H0.106979V252.585H526.107V258.822Z" fill="#114734"/>
<path d="M5.40538 233.808C6.03038 235.737 7.53438 237.004 11.1514 237.004C14.5374 237.004 15.5174 235.944 15.5174 234.502C15.5174 232.962 14.5134 232.095 9.92238 231.295C2.36138 229.969 0.986384 227.452 0.986384 224.454C0.986384 219.993 5.17538 217.712 10.3254 217.712C17.8034 217.712 19.8334 221.655 20.0804 224.251H14.7864C14.4784 223.145 13.7534 221.663 10.1594 221.663C7.63938 221.663 6.36338 222.485 6.36338 223.929C6.36338 225.221 7.26038 225.87 11.3504 226.622C19.6294 228.147 20.9244 230.708 20.9244 233.95C20.9244 237.822 17.9614 240.952 10.6534 240.952C3.83738 240.952 0.767384 237.832 0.106384 233.808H5.40538Z" fill="#114734"/>
<path d="M42.6615 231.075H30.5025V236.161H44.0235L43.4145 240.503H25.2145V218.16H43.3185V222.502H30.5025V226.733H42.6615V231.075Z" fill="#114734"/>
<path d="M47.9559 240.503V218.16H54.2169C60.3379 227.74 62.7809 231.227 64.1469 233.883H64.2089C63.9959 231.537 64.0269 227.356 64.0269 223.68V218.16H68.8709V240.503H63.0019C60.9489 237.175 53.9769 226.07 52.6799 223.518H52.6179C52.7999 226.275 52.7999 229.452 52.7999 233.421V240.503H47.9559Z" fill="#114734"/>
<path d="M79.9342 222.478H72.2652V218.161H92.8672V222.478H85.2252V240.503H79.9342V222.478Z" fill="#114734"/>
<path d="M101.541 240.503H96.254V218.16H101.541V240.503Z" fill="#114734"/>
<path d="M107.268 240.503V218.16H113.529C119.65 227.74 122.093 231.227 123.459 233.883H123.521C123.308 231.537 123.339 227.356 123.339 223.68V218.16H128.183V240.503H122.314C120.261 237.175 113.289 226.07 111.992 223.518H111.93C112.112 226.275 112.112 229.452 112.112 233.421V240.503H107.268Z" fill="#114734"/>
<path d="M151.354 231.075H139.195V236.161H152.716L152.107 240.503H133.907V218.16H152.011V222.502H139.195V226.733H151.354V231.075Z" fill="#114734"/>
<path d="M156.648 218.16H161.932V236.157H174.129L173.435 240.503H156.648V218.16Z" fill="#114734"/>
<path d="M206.211 231.944C206.211 228.093 206.238 224.086 206.362 221.609H206.331C205.248 225.736 203.2 232.29 200.634 240.503H195.979C193.983 233.301 191.692 225.846 190.537 221.613H190.506C190.668 224.211 190.866 228.552 190.866 232.359V240.503H186.103V218.16H193.744C195.932 225.079 197.942 231.147 198.592 234.206H198.623C199.546 230.682 201.512 224.811 203.632 218.16H211.308V240.503H206.211V231.944Z" fill="#114734"/>
<path d="M229.756 231.086C227.728 225.966 226.741 223.356 226.218 221.648H226.188C225.7 223.32 224.544 226.718 222.905 231.086H229.756ZM221.536 235.432L219.635 240.503H214.197L222.972 218.16H229.753L238.977 240.503H233.259L231.234 235.432H221.536Z" fill="#114734"/>
<path d="M247.115 240.503H241.827V218.16H247.115V240.503Z" fill="#114734"/>
<path d="M252.841 240.503V218.16H259.102C265.223 227.74 267.665 231.227 269.032 233.883H269.094C268.881 231.537 268.912 227.356 268.912 223.68V218.16H273.756V240.503H267.887C265.834 237.175 258.862 226.07 257.565 223.518H257.503C257.685 226.275 257.685 229.452 257.685 233.421V240.503H252.841Z" fill="#114734"/>
<path d="M284.82 222.478H277.151V218.161H297.752V222.478H290.11V240.503H284.82V222.478Z" fill="#114734"/>
<path d="M318.587 231.075H306.427V236.161H319.948L319.339 240.503H301.14V218.16H319.244V222.502H306.427V226.733H318.587V231.075Z" fill="#114734"/>
<path d="M323.88 240.503V218.16H330.141C336.262 227.74 338.705 231.227 340.071 233.883H340.133C339.92 231.537 339.951 227.356 339.951 223.68V218.16H344.796V240.503H338.927C336.873 237.175 329.901 226.07 328.605 223.518H328.542C328.724 226.275 328.724 229.452 328.724 233.421V240.503H323.88Z" fill="#114734"/>
<path d="M363.262 231.086C361.235 225.966 360.248 223.356 359.725 221.648H359.695C359.206 223.32 358.05 226.718 356.411 231.086H363.262ZM355.043 235.432L353.142 240.503H347.704L356.478 218.16H363.259L372.484 240.503H366.765L364.74 235.432H355.043Z" fill="#114734"/>
<path d="M375.334 240.503V218.16H381.595C387.716 227.74 390.159 231.227 391.525 233.883H391.587C391.374 231.537 391.405 227.356 391.405 223.68V218.16H396.25V240.503H390.381C388.327 237.175 381.355 226.07 380.059 223.518H379.996C380.178 226.275 380.178 229.452 380.178 233.421V240.503H375.334Z" fill="#114734"/>
<path d="M423.246 233.408C422.235 237.33 419.201 240.978 412.362 240.978C404.578 240.978 400.821 235.456 400.821 229.352C400.821 223.25 404.96 217.683 412.646 217.683C419.32 217.683 422.649 221.49 423.284 225.225H417.931C417.484 223.947 416.306 221.89 412.588 221.89C408.513 221.89 406.396 225.072 406.396 229.149C406.396 233.264 408.331 236.801 412.619 236.801C415.718 236.801 417.08 235.565 417.927 233.408H423.246Z" fill="#114734"/>
<path d="M444.358 231.075H432.198V236.161H445.719L445.11 240.503H426.911V218.16H445.015V222.502H432.198V226.733H444.358V231.075Z" fill="#114734"/>
<path d="M463.572 240.503H458.285V218.16H463.572V240.503Z" fill="#114734"/>
<path d="M469.299 240.503V218.16H475.56C481.681 227.74 484.124 231.227 485.49 233.883H485.552C485.339 231.537 485.37 227.356 485.37 223.68V218.16H490.215V240.503H484.346C482.292 237.175 475.32 226.07 474.024 223.518H473.961C474.143 226.275 474.143 229.452 474.143 233.421V240.503H469.299Z" fill="#114734"/>
<path d="M517.211 233.408C516.2 237.33 513.166 240.978 506.327 240.978C498.543 240.978 494.786 235.456 494.786 229.352C494.786 223.25 498.925 217.683 506.611 217.683C513.285 217.683 516.614 221.49 517.249 225.225H511.896C511.449 223.947 510.271 221.89 506.553 221.89C502.478 221.89 500.361 225.072 500.361 229.149C500.361 233.264 502.296 236.801 506.584 236.801C509.683 236.801 511.045 235.565 511.892 233.408H517.211Z" fill="#114734"/>
<path d="M520.282 233.863H526.107V240.503H520.282V233.863Z" fill="#114734"/>
</svg>
