<?xml version="1.0" encoding="UTF-8"?><svg id="Layer_2" xmlns="http://www.w3.org/2000/svg" viewBox="0 0 172.26 79.49"><defs><style>.cls-1{fill:#124734;}.cls-1,.cls-2{stroke-width:0px;}.cls-3{fill:none;stroke:#124734;}.cls-4{fill-rule:evenodd;}.cls-4,.cls-2,.cls-5{fill:#00502a;}.cls-4,.cls-5{stroke:#00502a;stroke-miterlimit:3.86;stroke-width:1.53px;}</style></defs><g id="Layer_1-2"><path class="cls-5" d="M17.71,26.27h34.08c17.64,0,21.23,39.31-4.8,39.31,0,0-45.35.12-45.35.11v-15.73c32.06,0,49.4-.04,47.82-.04,2.4-2.38,1.96-5.3-.05-7.66-2.26-.07-31.2,0-31.2,0C-6.2,42.26-4.14,1.34,19.04,1.32l46.57.07v16.71s-48.49.11-47.82-.04c-2.08,2.47-2.28,5.9-.09,8.2Z"/><polygon class="cls-4" points="77.45 65.7 77.45 16.19 97.17 65.7 77.45 65.7"/><polygon class="cls-4" points="129.85 65.7 129.85 16.19 110.14 65.7 129.85 65.7"/><polygon class="cls-4" points="103.44 41.51 120.14 .76 87.75 .76 103.44 41.51"/><rect class="cls-5" x="143.24" y="1.04" width="16.19" height="64.66"/><path class="cls-3" d="M171.76,5.69c0,2.72-2.2,4.92-4.92,4.92-2.72,0-4.92-2.2-4.92-4.92s2.2-4.92,4.92-4.92h0c2.72,0,4.92,2.2,4.92,4.92Z"/><path class="cls-1" d="M164.13,8.8V2.58h2.56c.47-.02.95.03,1.4.17.29.12.54.33.7.6.18.29.28.63.28.98.02.42-.13.83-.4,1.16-.31.33-.73.53-1.19.57.24.14.46.32.65.53.26.32.49.65.69,1.01l.74,1.22h-1.46l-.87-1.35c-.19-.32-.41-.63-.64-.92-.1-.11-.22-.2-.36-.26-.2-.06-.41-.08-.62-.07h-.25v2.6h-1.23ZM165.35,5.21h.9c.37.02.74,0,1.11-.07.14-.05.26-.14.34-.26.09-.14.13-.3.12-.46.03-.38-.24-.71-.62-.75-.1,0-.4-.02-.89-.02h-.95v1.57Z"/><path class="cls-2" d="M3.81,76.32c1.38.07,3.33.17,3.32,1.41,0,1.42-1.62,1.75-3.36,1.75-1.74,0-3.18-.21-3.36-1.75h2.03c.22.38.73.48,1.34.48s1.34-.1,1.34-.48c0-.22-.6-.25-1.38-.29-1.38-.07-3.33-.17-3.32-1.41,0-1.42,1.62-1.75,3.36-1.75,1.74.01,3.18.21,3.36,1.75h-2.03c-.22-.39-.73-.48-1.34-.48s-1.34.09-1.34.48c0,.22.6.25,1.38.28Z"/><path class="cls-2" d="M7.65,74.41h5.8v1.27h-3.87v.63h3.87v1.15h-3.87v.63h3.87v1.27h-5.8v-4.96Z"/><path class="cls-2" d="M19.31,74.41h1.94v4.96h-2.18l-2.66-3.03v3.03h-1.93v-4.96h2.66l2.18,2.63v-2.63Z"/><path class="cls-2" d="M24.22,79.37v-3.39h-2.3v-1.57h6.53v1.57h-2.3v3.39h-1.93Z"/><path class="cls-2" d="M31.03,74.41v4.96h-1.93v-4.96h1.93Z"/><path class="cls-2" d="M36.89,74.41h1.94v4.96h-2.18l-2.66-3.03v3.03h-1.93v-4.96h2.66l2.18,2.63v-2.63Z"/><path class="cls-2" d="M39.95,74.41h5.8v1.27h-3.87v.63h3.87v1.15h-3.87v.63h3.87v1.27h-5.8v-4.96Z"/><path class="cls-2" d="M48.71,74.41v3.39h3.87v1.57h-5.8v-4.96h1.93Z"/><path class="cls-2" d="M58.71,74.41h2.42l1.93,2.48,1.94-2.48h2.42v4.96h-1.93v-2.64l-1.94,2.64h-.97l-1.94-2.64v2.64h-1.93v-4.96Z"/><path class="cls-2" d="M70.22,74.41h2.3l2.66,4.96h-2.18l-.39-.85h-2.48l-.39.85h-2.18l2.66-4.96ZM70.69,77.31h1.36l-.68-1.46-.68,1.46Z"/><path class="cls-2" d="M77.26,74.41v4.96h-1.93v-4.96h1.93Z"/><path class="cls-2" d="M83.12,74.41h1.94v4.96h-2.18l-2.66-3.03v3.03h-1.93v-4.96h2.66l2.18,2.63v-2.63Z"/><path class="cls-2" d="M88.03,79.37v-3.39h-2.3v-1.57h6.53v1.57h-2.3v3.39h-1.93Z"/><path class="cls-2" d="M92.91,74.41h5.8v1.27h-3.87v.63h3.87v1.15h-3.87v.63h3.87v1.27h-5.8v-4.96Z"/><path class="cls-2" d="M104.57,74.41h1.94v4.96h-2.18l-2.66-3.03v3.03h-1.93v-4.96h2.66l2.18,2.63v-2.63Z"/><path class="cls-2" d="M109.31,74.41h2.3l2.66,4.96h-2.18l-.39-.85h-2.48l-.39.85h-2.18l2.66-4.96ZM109.78,77.31h1.36l-.68-1.46-.68,1.46Z"/><path class="cls-2" d="M119.25,74.41h1.94v4.96h-2.18l-2.66-3.03v3.03h-1.93v-4.96h2.66l2.18,2.63v-2.63Z"/><path class="cls-2" d="M128.64,77.31c-.12,1.68-1.59,2.18-3.37,2.18-1.86,0-3.39-.54-3.39-2.42v-.36c0-1.87,1.53-2.41,3.39-2.42,1.78,0,3.25.5,3.37,2.18h-1.98c-.18-.49-.73-.6-1.39-.6-.79.01-1.46.15-1.45.97v.12c-.01.81.66.96,1.45.97.66,0,1.22-.12,1.39-.61h1.98Z"/><path class="cls-2" d="M129.21,74.41h5.8v1.27h-3.87v.63h3.87v1.15h-3.87v.63h3.87v1.27h-5.8v-4.96Z"/><path class="cls-2" d="M143.08,74.41v4.96h-1.93v-4.96h1.93Z"/><path class="cls-2" d="M148.94,74.41h1.94v4.96h-2.18l-2.66-3.03v3.03h-1.93v-4.96h2.66l2.18,2.63v-2.63Z"/><path class="cls-2" d="M158.32,77.31c-.12,1.68-1.59,2.18-3.38,2.18-1.86,0-3.39-.54-3.39-2.42v-.36c0-1.87,1.53-2.41,3.39-2.42,1.79,0,3.25.5,3.38,2.18h-1.98c-.18-.49-.73-.6-1.39-.6-.79.01-1.46.15-1.45.97v.12c-.01.81.66.96,1.45.97.66,0,1.22-.12,1.39-.61h1.98Z"/><path class="cls-2" d="M160.41,77.92v1.45h-1.93v-1.45h1.93Z"/></g></svg>