<svg id="Layer_1" data-name="Layer 1" xmlns="http://www.w3.org/2000/svg" viewBox="0 0 619.96 308.12"><defs><style>.cls-1,.cls-2,.cls-3{fill:#00502a;}.cls-1,.cls-2{stroke:#00502a;stroke-miterlimit:3.86;stroke-width:1.53px;}.cls-2{fill-rule:evenodd;}.cls-4{fill:none;stroke:#124734;}.cls-5{fill:#124734;}</style></defs><title>SMI-LOGO-MASTER-POLO</title><path class="cls-1" d="M148,239.2h123.3c63.82,0,76.82,142.22-17.36,142.23,0,0-164.08.43-164.08.4s0-56.85,0-56.91c116,0,178.74-.14,173-.14,8.69-8.61,7.1-19.17-.18-27.72-8.17-.26-112.86,0-112.86,0-88.31,0-80.86-148.07,3-148.15l168.5.27v60.47s-175.43.38-173-.13C140.81,218.45,140.08,230.85,148,239.2Z" transform="translate(-85.89 -146.16)"/><polygon class="cls-2" points="278.26 235.67 278.26 56.58 349.57 235.67 278.26 235.67"/><polygon class="cls-2" points="467.83 235.67 467.83 56.58 396.52 235.67 467.83 235.67"/><polygon class="cls-2" points="372.28 148.16 432.68 0.76 315.51 0.76 372.28 148.16"/><rect class="cls-1" x="516.25" y="1.74" width="58.59" height="233.93"/><path class="cls-1" d="M631.44,264.86" transform="translate(-85.89 -146.16)"/><path class="cls-3" d="M89.15,446.94a15.47,15.47,0,0,0,8.77,2.75c5,0,8-2.88,8-7.2,0-3.89-2-6.21-7.19-8.34-6.22-2.51-10.07-6.14-10.07-12,0-6.58,4.93-11.47,12.34-11.47a15.73,15.73,0,0,1,8.38,2.08L108,417.17a13.18,13.18,0,0,0-7.19-2c-5.21,0-7.19,3.45-7.19,6.33,0,3.94,2.33,5.89,7.59,8.15,6.45,2.81,9.67,6.2,9.67,12.4,0,6.51-4.3,12.22-13.3,12.22a18.17,18.17,0,0,1-9.73-2.76Z" transform="translate(-85.89 -146.16)"/><path class="cls-3" d="M119.59,439.35c.1,7.46,4.35,10.53,9.32,10.53a17.35,17.35,0,0,0,7.59-1.5l.9,3.89a20.38,20.38,0,0,1-9.16,1.94c-8.37,0-13.47-6.21-13.47-15.29s4.92-16.43,12.9-16.43c8.94,0,11.26,8.72,11.26,14.3a15,15,0,0,1-.17,2.63Zm14.53-3.94c.06-3.44-1.3-9-6.84-9-5.09,0-7.24,5.14-7.65,9Z" transform="translate(-85.89 -146.16)"/><path class="cls-3" d="M144.92,431.46c0-3.2,0-5.7-.22-8.2h4.42l.28,4.94h.11a10,10,0,0,1,9.06-5.64c3.78,0,9.67,2.51,9.67,12.92v18.1h-5V436.1c0-4.89-1.64-9-6.34-9-3.22,0-5.76,2.58-6.67,5.65a8.82,8.82,0,0,0-.34,2.56v18.3h-5Z" transform="translate(-85.89 -146.16)"/><path class="cls-3" d="M179.33,416v7.28h7.13v4.19h-7.13v16.36c0,3.75,1,5.88,3.73,5.88a8.28,8.28,0,0,0,2.89-.37l.23,4.21a12.66,12.66,0,0,1-4.42.74,6.77,6.77,0,0,1-5.37-2.31c-1.36-1.7-1.93-4.4-1.93-8V427.45h-4.23v-4.19h4.23v-5.58Z" transform="translate(-85.89 -146.16)"/><path class="cls-3" d="M194.26,417.68a3.57,3.57,0,0,1,.12-7.09,3.25,3.25,0,0,1,3.17,3.51,3.31,3.31,0,0,1-3.23,3.58Zm-2.38,35.9V423.26h5v30.32Z" transform="translate(-85.89 -146.16)"/><path class="cls-3" d="M203.26,431.46c0-3.2-.06-5.7-.22-8.2h4.41l.28,4.94h.11a10,10,0,0,1,9.06-5.64c3.79,0,9.66,2.51,9.66,12.92v18.1h-5V436.1c0-4.89-1.64-9-6.34-9-3.22,0-5.77,2.58-6.67,5.65a9.16,9.16,0,0,0-.35,2.56v18.3h-5Z" transform="translate(-85.89 -146.16)"/><path class="cls-3" d="M236.47,439.35c.11,7.46,4.36,10.53,9.33,10.53a17.42,17.42,0,0,0,7.59-1.5l.9,3.89a20.43,20.43,0,0,1-9.17,1.94c-8.36,0-13.46-6.21-13.46-15.29s4.92-16.43,12.9-16.43c8.94,0,11.25,8.72,11.25,14.3a16.21,16.21,0,0,1-.16,2.63ZM251,435.41c.05-3.44-1.31-9-6.84-9-5.1,0-7.25,5.14-7.64,9Z" transform="translate(-85.89 -146.16)"/><path class="cls-3" d="M261.26,409.09h5v44.49h-5Z" transform="translate(-85.89 -146.16)"/><path class="cls-3" d="M318.45,435c-.29-5.89-.62-13-.62-18.23h-.12c-1.36,4.89-2.88,10.21-4.8,16l-6.74,20.49h-3.73l-6.22-20.11c-1.81-6-3.29-11.41-4.37-16.42h-.11c-.11,5.26-.4,12.28-.73,18.68l-1,18.1h-4.69L288,411.34h6.28l6.51,20.43c1.58,5.2,2.83,9.84,3.84,14.23h.13c1-4.27,2.37-8.9,4.06-14.23l6.79-20.43h6.29l2.37,42.24h-4.86Z" transform="translate(-85.89 -146.16)"/><path class="cls-3" d="M351.09,446.31a57,57,0,0,0,.39,7.27H347l-.46-3.82h-.17a9.83,9.83,0,0,1-8.37,4.51c-5.55,0-8.37-4.32-8.37-8.71,0-7.33,5.88-11.34,16.46-11.28v-.62c0-2.51-.62-7.09-6.23-7a12.34,12.34,0,0,0-7.19,2.26l-1.12-3.7a16.36,16.36,0,0,1,9.05-2.63c8.42,0,10.47,6.33,10.47,12.42Zm-4.87-8.21c-5.43-.12-11.6.95-11.6,6.83,0,3.63,2.15,5.27,4.64,5.27a7,7,0,0,0,6.73-5.08,6.19,6.19,0,0,0,.23-1.75Z" transform="translate(-85.89 -146.16)"/><path class="cls-3" d="M359.29,417.68c-1.87,0-3.11-1.63-3.11-3.58a3.28,3.28,0,0,1,3.22-3.51,3.25,3.25,0,0,1,3.17,3.51,3.31,3.31,0,0,1-3.22,3.58Zm-2.38,35.9V423.26h5v30.32Z" transform="translate(-85.89 -146.16)"/><path class="cls-3" d="M368,431.46c0-3.2-.06-5.7-.22-8.2h4.41l.28,4.94h.12a10,10,0,0,1,9.05-5.64c3.79,0,9.67,2.51,9.67,12.92v18.1h-5V436.1c0-4.89-1.64-9-6.34-9-3.23,0-5.77,2.58-6.68,5.65a9.17,9.17,0,0,0-.34,2.56v18.3h-5Z" transform="translate(-85.89 -146.16)"/><path class="cls-3" d="M402.4,416v7.28h7.13v4.19H402.4v16.36c0,3.75,1,5.88,3.73,5.88a8.28,8.28,0,0,0,2.89-.37l.22,4.21a12.5,12.5,0,0,1-4.41.74,6.78,6.78,0,0,1-5.37-2.31c-1.36-1.7-1.92-4.4-1.92-8V427.45h-4.25v-4.19h4.25v-5.58Z" transform="translate(-85.89 -146.16)"/><path class="cls-3" d="M417.46,439.35c.11,7.46,4.36,10.53,9.34,10.53a17.4,17.4,0,0,0,7.58-1.5l.9,3.89a20.43,20.43,0,0,1-9.17,1.94c-8.37,0-13.45-6.21-13.45-15.29s4.91-16.43,12.89-16.43c8.94,0,11.27,8.72,11.27,14.3a14.63,14.63,0,0,1-.19,2.63ZM432,435.41c.06-3.44-1.3-9-6.85-9-5.09,0-7.24,5.14-7.63,9Z" transform="translate(-85.89 -146.16)"/><path class="cls-3" d="M441.11,431.46c0-3.2-.06-5.7-.23-8.2h4.41l.29,4.94h.11a10,10,0,0,1,9.05-5.64c3.8,0,9.68,2.51,9.68,12.92v18.1h-5V436.1c0-4.89-1.64-9-6.34-9-3.23,0-5.77,2.58-6.68,5.65a9.17,9.17,0,0,0-.34,2.56v18.3h-5Z" transform="translate(-85.89 -146.16)"/><path class="cls-3" d="M490.21,446.31a58.84,58.84,0,0,0,.39,7.27h-4.46l-.45-3.82h-.17a9.83,9.83,0,0,1-8.37,4.51c-5.54,0-8.38-4.32-8.38-8.71,0-7.33,5.89-11.34,16.47-11.28v-.62c0-2.51-.63-7.09-6.22-7a12.27,12.27,0,0,0-7.19,2.26l-1.13-3.7a16.39,16.39,0,0,1,9.05-2.63c8.43,0,10.46,6.33,10.46,12.42Zm-4.86-8.21c-5.43-.12-11.6.95-11.6,6.83,0,3.63,2.15,5.27,4.65,5.27a7,7,0,0,0,6.72-5.08,5.85,5.85,0,0,0,.23-1.75Z" transform="translate(-85.89 -146.16)"/><path class="cls-3" d="M496.61,431.46c0-3.2-.06-5.7-.22-8.2h4.41l.29,4.94h.1a10,10,0,0,1,9.06-5.64c3.78,0,9.67,2.51,9.67,12.92v18.1h-5V436.1c0-4.89-1.64-9-6.33-9-3.24,0-5.78,2.58-6.68,5.65a8.82,8.82,0,0,0-.34,2.56v18.3h-5Z" transform="translate(-85.89 -146.16)"/><path class="cls-3" d="M545.94,452.51a17.64,17.64,0,0,1-7.87,1.76c-8.25,0-13.62-6.21-13.62-15.54s5.76-16.17,14.7-16.17a14.49,14.49,0,0,1,6.91,1.63l-1.13,4.2a11.27,11.27,0,0,0-5.78-1.44c-6.27,0-9.67,5.2-9.67,11.53,0,7,4.07,11.34,9.51,11.34a13.07,13.07,0,0,0,6.1-1.44Z" transform="translate(-85.89 -146.16)"/><path class="cls-3" d="M554.1,439.35c.11,7.46,4.35,10.53,9.33,10.53a17.38,17.38,0,0,0,7.59-1.5l.9,3.89a20.43,20.43,0,0,1-9.17,1.94c-8.36,0-13.45-6.21-13.45-15.29s4.91-16.43,12.89-16.43c8.94,0,11.26,8.72,11.26,14.3a14.79,14.79,0,0,1-.18,2.63Zm14.54-3.94c.06-3.44-1.3-9-6.85-9-5.09,0-7.24,5.14-7.63,9Z" transform="translate(-85.89 -146.16)"/><path class="cls-3" d="M596.36,411.34v42.24h-5V411.34Z" transform="translate(-85.89 -146.16)"/><path class="cls-3" d="M602.93,431.46c0-3.2-.06-5.7-.23-8.2h4.41l.28,4.94h.11a10,10,0,0,1,9.06-5.64c3.79,0,9.67,2.51,9.67,12.92v18.1h-5V436.1c0-4.89-1.64-9-6.33-9-3.23,0-5.77,2.58-6.67,5.65a8.49,8.49,0,0,0-.34,2.56v18.3h-5Z" transform="translate(-85.89 -146.16)"/><path class="cls-3" d="M652.09,452.51a17.64,17.64,0,0,1-7.87,1.76c-8.26,0-13.62-6.21-13.62-15.54s5.76-16.17,14.7-16.17a14.41,14.41,0,0,1,6.9,1.63l-1.13,4.2A11.23,11.23,0,0,0,645.3,427c-6.28,0-9.67,5.2-9.67,11.53,0,7,4.07,11.34,9.5,11.34a13.08,13.08,0,0,0,6.11-1.44Z" transform="translate(-85.89 -146.16)"/><path class="cls-3" d="M659.4,454.27c-1.92,0-3.28-1.69-3.28-3.95s1.41-3.95,3.39-3.95,3.34,1.63,3.34,3.95-1.36,3.95-3.39,3.95Z" transform="translate(-85.89 -146.16)"/><path class="cls-3" d="M89.15,446.94a15.47,15.47,0,0,0,8.77,2.75c5,0,8-2.88,8-7.2,0-3.89-2-6.21-7.19-8.34-6.22-2.51-10.07-6.14-10.07-12,0-6.58,4.93-11.47,12.34-11.47a15.73,15.73,0,0,1,8.38,2.08L108,417.17a13.18,13.18,0,0,0-7.19-2c-5.21,0-7.19,3.45-7.19,6.33,0,3.94,2.33,5.89,7.59,8.15,6.45,2.81,9.67,6.2,9.67,12.4,0,6.51-4.3,12.22-13.3,12.22a18.17,18.17,0,0,1-9.73-2.76Z" transform="translate(-85.89 -146.16)"/><path class="cls-3" d="M119.59,439.35c.1,7.46,4.35,10.53,9.32,10.53a17.35,17.35,0,0,0,7.59-1.5l.9,3.89a20.38,20.38,0,0,1-9.16,1.94c-8.37,0-13.47-6.21-13.47-15.29s4.92-16.43,12.9-16.43c8.94,0,11.26,8.72,11.26,14.3a15,15,0,0,1-.17,2.63Zm14.53-3.94c.06-3.44-1.3-9-6.84-9-5.09,0-7.24,5.14-7.65,9Z" transform="translate(-85.89 -146.16)"/><path class="cls-3" d="M144.92,431.46c0-3.2,0-5.7-.22-8.2h4.42l.28,4.94h.11a10,10,0,0,1,9.06-5.64c3.78,0,9.67,2.51,9.67,12.92v18.1h-5V436.1c0-4.89-1.64-9-6.34-9-3.22,0-5.76,2.58-6.67,5.65a8.82,8.82,0,0,0-.34,2.56v18.3h-5Z" transform="translate(-85.89 -146.16)"/><path class="cls-3" d="M179.33,416v7.28h7.13v4.19h-7.13v16.36c0,3.75,1,5.88,3.73,5.88a8.28,8.28,0,0,0,2.89-.37l.23,4.21a12.66,12.66,0,0,1-4.42.74,6.77,6.77,0,0,1-5.37-2.31c-1.36-1.7-1.93-4.4-1.93-8V427.45h-4.23v-4.19h4.23v-5.58Z" transform="translate(-85.89 -146.16)"/><path class="cls-3" d="M194.26,417.68a3.57,3.57,0,0,1,.12-7.09,3.25,3.25,0,0,1,3.17,3.51,3.31,3.31,0,0,1-3.23,3.58Zm-2.38,35.9V423.26h5v30.32Z" transform="translate(-85.89 -146.16)"/><path class="cls-3" d="M203.26,431.46c0-3.2-.06-5.7-.22-8.2h4.41l.28,4.94h.11a10,10,0,0,1,9.06-5.64c3.79,0,9.66,2.51,9.66,12.92v18.1h-5V436.1c0-4.89-1.64-9-6.34-9-3.22,0-5.77,2.58-6.67,5.65a9.16,9.16,0,0,0-.35,2.56v18.3h-5Z" transform="translate(-85.89 -146.16)"/><path class="cls-3" d="M236.47,439.35c.11,7.46,4.36,10.53,9.33,10.53a17.42,17.42,0,0,0,7.59-1.5l.9,3.89a20.43,20.43,0,0,1-9.17,1.94c-8.36,0-13.46-6.21-13.46-15.29s4.92-16.43,12.9-16.43c8.94,0,11.25,8.72,11.25,14.3a16.21,16.21,0,0,1-.16,2.63ZM251,435.41c.05-3.44-1.31-9-6.84-9-5.1,0-7.25,5.14-7.64,9Z" transform="translate(-85.89 -146.16)"/><path class="cls-3" d="M261.26,409.09h5v44.49h-5Z" transform="translate(-85.89 -146.16)"/><path class="cls-3" d="M318.45,435c-.29-5.89-.62-13-.62-18.23h-.12c-1.36,4.89-2.88,10.21-4.8,16l-6.74,20.49h-3.73l-6.22-20.11c-1.81-6-3.29-11.41-4.37-16.42h-.11c-.11,5.26-.4,12.28-.73,18.68l-1,18.1h-4.69L288,411.34h6.28l6.51,20.43c1.58,5.2,2.83,9.84,3.84,14.23h.13c1-4.27,2.37-8.9,4.06-14.23l6.79-20.43h6.29l2.37,42.24h-4.86Z" transform="translate(-85.89 -146.16)"/><path class="cls-3" d="M351.09,446.31a57,57,0,0,0,.39,7.27H347l-.46-3.82h-.17a9.83,9.83,0,0,1-8.37,4.51c-5.55,0-8.37-4.32-8.37-8.71,0-7.33,5.88-11.34,16.46-11.28v-.62c0-2.51-.62-7.09-6.23-7a12.34,12.34,0,0,0-7.19,2.26l-1.12-3.7a16.36,16.36,0,0,1,9.05-2.63c8.42,0,10.47,6.33,10.47,12.42Zm-4.87-8.21c-5.43-.12-11.6.95-11.6,6.83,0,3.63,2.15,5.27,4.64,5.27a7,7,0,0,0,6.73-5.08,6.19,6.19,0,0,0,.23-1.75Z" transform="translate(-85.89 -146.16)"/><path class="cls-3" d="M359.29,417.68c-1.87,0-3.11-1.63-3.11-3.58a3.28,3.28,0,0,1,3.22-3.51,3.25,3.25,0,0,1,3.17,3.51,3.31,3.31,0,0,1-3.22,3.58Zm-2.38,35.9V423.26h5v30.32Z" transform="translate(-85.89 -146.16)"/><path class="cls-3" d="M368,431.46c0-3.2-.06-5.7-.22-8.2h4.41l.28,4.94h.12a10,10,0,0,1,9.05-5.64c3.79,0,9.67,2.51,9.67,12.92v18.1h-5V436.1c0-4.89-1.64-9-6.34-9-3.23,0-5.77,2.58-6.68,5.65a9.17,9.17,0,0,0-.34,2.56v18.3h-5Z" transform="translate(-85.89 -146.16)"/><path class="cls-3" d="M402.4,416v7.28h7.13v4.19H402.4v16.36c0,3.75,1,5.88,3.73,5.88a8.28,8.28,0,0,0,2.89-.37l.22,4.21a12.5,12.5,0,0,1-4.41.74,6.78,6.78,0,0,1-5.37-2.31c-1.36-1.7-1.92-4.4-1.92-8V427.45h-4.25v-4.19h4.25v-5.58Z" transform="translate(-85.89 -146.16)"/><path class="cls-3" d="M417.46,439.35c.11,7.46,4.36,10.53,9.34,10.53a17.4,17.4,0,0,0,7.58-1.5l.9,3.89a20.43,20.43,0,0,1-9.17,1.94c-8.37,0-13.45-6.21-13.45-15.29s4.91-16.43,12.89-16.43c8.94,0,11.27,8.72,11.27,14.3a14.63,14.63,0,0,1-.19,2.63ZM432,435.41c.06-3.44-1.3-9-6.85-9-5.09,0-7.24,5.14-7.63,9Z" transform="translate(-85.89 -146.16)"/><path class="cls-3" d="M441.11,431.46c0-3.2-.06-5.7-.23-8.2h4.41l.29,4.94h.11a10,10,0,0,1,9.05-5.64c3.8,0,9.68,2.51,9.68,12.92v18.1h-5V436.1c0-4.89-1.64-9-6.34-9-3.23,0-5.77,2.58-6.68,5.65a9.17,9.17,0,0,0-.34,2.56v18.3h-5Z" transform="translate(-85.89 -146.16)"/><path class="cls-3" d="M490.21,446.31a58.84,58.84,0,0,0,.39,7.27h-4.46l-.45-3.82h-.17a9.83,9.83,0,0,1-8.37,4.51c-5.54,0-8.38-4.32-8.38-8.71,0-7.33,5.89-11.34,16.47-11.28v-.62c0-2.51-.63-7.09-6.22-7a12.27,12.27,0,0,0-7.19,2.26l-1.13-3.7a16.39,16.39,0,0,1,9.05-2.63c8.43,0,10.46,6.33,10.46,12.42Zm-4.86-8.21c-5.43-.12-11.6.95-11.6,6.83,0,3.63,2.15,5.27,4.65,5.27a7,7,0,0,0,6.72-5.08,5.85,5.85,0,0,0,.23-1.75Z" transform="translate(-85.89 -146.16)"/><path class="cls-3" d="M496.61,431.46c0-3.2-.06-5.7-.22-8.2h4.41l.29,4.94h.1a10,10,0,0,1,9.06-5.64c3.78,0,9.67,2.51,9.67,12.92v18.1h-5V436.1c0-4.89-1.64-9-6.33-9-3.24,0-5.78,2.58-6.68,5.65a8.82,8.82,0,0,0-.34,2.56v18.3h-5Z" transform="translate(-85.89 -146.16)"/><path class="cls-3" d="M545.94,452.51a17.64,17.64,0,0,1-7.87,1.76c-8.25,0-13.62-6.21-13.62-15.54s5.76-16.17,14.7-16.17a14.49,14.49,0,0,1,6.91,1.63l-1.13,4.2a11.27,11.27,0,0,0-5.78-1.44c-6.27,0-9.67,5.2-9.67,11.53,0,7,4.07,11.34,9.51,11.34a13.07,13.07,0,0,0,6.1-1.44Z" transform="translate(-85.89 -146.16)"/><path class="cls-3" d="M554.1,439.35c.11,7.46,4.35,10.53,9.33,10.53a17.38,17.38,0,0,0,7.59-1.5l.9,3.89a20.43,20.43,0,0,1-9.17,1.94c-8.36,0-13.45-6.21-13.45-15.29s4.91-16.43,12.89-16.43c8.94,0,11.26,8.72,11.26,14.3a14.79,14.79,0,0,1-.18,2.63Zm14.54-3.94c.06-3.44-1.3-9-6.85-9-5.09,0-7.24,5.14-7.63,9Z" transform="translate(-85.89 -146.16)"/><path class="cls-3" d="M596.36,411.34v42.24h-5V411.34Z" transform="translate(-85.89 -146.16)"/><path class="cls-3" d="M602.93,431.46c0-3.2-.06-5.7-.23-8.2h4.41l.28,4.94h.11a10,10,0,0,1,9.06-5.64c3.79,0,9.67,2.51,9.67,12.92v18.1h-5V436.1c0-4.89-1.64-9-6.33-9-3.23,0-5.77,2.58-6.67,5.65a8.49,8.49,0,0,0-.34,2.56v18.3h-5Z" transform="translate(-85.89 -146.16)"/><path class="cls-3" d="M652.09,452.51a17.64,17.64,0,0,1-7.87,1.76c-8.26,0-13.62-6.21-13.62-15.54s5.76-16.17,14.7-16.17a14.41,14.41,0,0,1,6.9,1.63l-1.13,4.2A11.23,11.23,0,0,0,645.3,427c-6.28,0-9.67,5.2-9.67,11.53,0,7,4.07,11.34,9.5,11.34a13.08,13.08,0,0,0,6.11-1.44Z" transform="translate(-85.89 -146.16)"/><path class="cls-3" d="M659.4,454.27c-1.92,0-3.28-1.69-3.28-3.95s1.41-3.95,3.39-3.95,3.34,1.63,3.34,3.95-1.36,3.95-3.39,3.95Z" transform="translate(-85.89 -146.16)"/><path class="cls-4" d="M705.35,164.72a17.8,17.8,0,1,1-17.8-17.8A17.8,17.8,0,0,1,705.35,164.72Z" transform="translate(-85.89 -146.16)"/><path class="cls-5" d="M677.74,176v-22.5H687a15.57,15.57,0,0,1,5.08.6,5.09,5.09,0,0,1,2.53,2.16,6.57,6.57,0,0,1,1,3.54,6.12,6.12,0,0,1-1.44,4.18,6.82,6.82,0,0,1-4.29,2.07,10.42,10.42,0,0,1,2.35,1.9,25.21,25.21,0,0,1,2.5,3.65l2.66,4.4h-5.27l-3.16-4.9a31.82,31.82,0,0,0-2.33-3.32,3.48,3.48,0,0,0-1.32-.93,7,7,0,0,0-2.23-.26h-.89V176Zm4.41-13h3.26a16.65,16.65,0,0,0,4-.27,2.43,2.43,0,0,0,1.23-.95,3,3,0,0,0,.45-1.68,2.53,2.53,0,0,0-2.24-2.71c-.36,0-1.43-.08-3.22-.08h-3.43Z" transform="translate(-85.89 -146.16)"/></svg>